<svg id="Layer_1" data-name="Layer 1" xmlns="http://www.w3.org/2000/svg" viewBox="0 0 100 100"><defs><style>.cls-1{fill:#f2f2f2;}.cls-2{fill:#d65f7b;}</style></defs><rect class="cls-1" width="100" height="100" rx="16.93"/><path class="cls-2" d="M67.56,99.5h-37V97.68l2.73-.11c2.2-.23,4.67-4.25,4.67-7.06l.11-5.23V47.8l22,.31V85.28l.11,5.23c0,2.73,2.46,6.83,4.66,7.06l2.73.11Z"/><path class="cls-2" d="M66.89,16.25a4.37,4.37,0,0,1-5.72-.57c.42-.68.83-1.36,1.24-2,0,0,.11-.4,0-.34a8.15,8.15,0,0,0-2.14,1.14,10.4,10.4,0,0,0-.79.7l-.34.27L58.72,15a.87.87,0,0,0-.3-.44.35.35,0,0,0,0-.2,1.42,1.42,0,0,0-.7-1c-.83-.56-1.78-1.15-1.74-2.1a2.49,2.49,0,0,0,.14-.44,1.62,1.62,0,0,0,0-.2,2,2,0,0,1,.1-.21c0-.07.11-.24,0-.32a2,2,0,0,0-.38-.28.88.88,0,0,0-1-.14c-.77.3-.93,1.18-1,1.91s-.25,2.3-1.37,2a1.73,1.73,0,0,1-1-1.11c-.29-.9.13-1.79,0-2.69a1.12,1.12,0,0,0-1.81-.9,2.06,2.06,0,0,0-.62,1.95c.09.7.71,1.44.74,2.09,0,.47-.29.93-.82.83a1,1,0,0,1-.36-.16c-.74-.83-1.07-2.28-1.75-3a12.7,12.7,0,0,1-1.68-1.68,21.21,21.21,0,0,1-1-2.16c-.46-.94-1.47-2.27-2.7-1.8a1.8,1.8,0,0,0-1,1.75c0,1.55,1.51,2.44,2.47,3.48a4.6,4.6,0,0,1,.64.83,2.08,2.08,0,0,1,.31.78l-.33.46c-.11.49-.28.59-.52.31-.54-.23-.54-1.71-.84-2.25a10.18,10.18,0,0,0-3.44-3.11A1.15,1.15,0,0,0,37,8c-.28,1.23,1,1.33,1.81,1.85a4.33,4.33,0,0,1,1.43,2.13c.35.76,1.49,1.87,1.47,2.71l-.2.51c0,.46-.11.61-.4.44s-.13-.1-.44-.29a1.11,1.11,0,0,0-.79-.29.76.76,0,0,0-.61.52.81.81,0,0,0,0,.51c.07.19.22.27.36.4s.55.39.59.61a.92.92,0,0,1-.8,1.15c-1.74.25-3.46-.67-4.94-1.54a19.65,19.65,0,0,1-4.8-3.58c-.59-.64-2-2.38-2.63-1a1.75,1.75,0,0,0,.6,2.12c.85.64,2,.86,2.85,1.49s1.63,1.42,2.46,2.1a6.38,6.38,0,0,0,2.77,1.39c.47.11,1.37.23,1.55.78a2.61,2.61,0,0,1-.59,1.72,1.69,1.69,0,0,1-.64.48c-.77.25-2-.51-2.09.75a3.65,3.65,0,0,0,.57,1.56,1.45,1.45,0,0,0,.5.77,1.72,1.72,0,0,0,.62.16l-.29.81L35,26.1c-.13,0-.29-.05-.42,0a1,1,0,0,0-.54.2,1,1,0,0,0-.26,1.21c.24.47.64.5,1.1.48.24,0,.85-.31,1.07-.17L35.71,29l-.41,0a5.43,5.43,0,0,0-1.16.44c-.34.2-1.09.62-1,1.15s.48.43.83.33a3.71,3.71,0,0,0,1-.59,5.33,5.33,0,0,1,.74-.5l.26-.12c.86-.28,1.05-.07.55.63-.29.77-.16.7-.86.69l-.61,0a2.51,2.51,0,0,0-1.25.21c-.69.38-1.09,1.85.15,1.61.29-.06,1.51-.92,1.76-.53l-.06.51c.12.43,0,.61-.38.54-.18,0-.44,0-.63,0a5.27,5.27,0,0,0-2.52.86c-.38.26-.86.62-.83,1.14a1,1,0,0,0,1.1.84c.8,0,1.5-.74,2.1-1.15a4.23,4.23,0,0,1,1.68-.84,1.82,1.82,0,0,1,1.08.11c.76.34,1.12,1.32.15,1.86-.55.31-1.29.39-1.37,1.16a.68.68,0,0,0,.72.81c.88,0,1.41-1,1.82-1.56a2.28,2.28,0,0,1,1.81-1.11l.6,0a2.24,2.24,0,0,0,1.37,1c-.26.31-.68.52-.68,1a.66.66,0,0,0,1,.58,5.16,5.16,0,0,0,.35-.48c.7-.18.37.86.45,1.13.14.5.54,1.47,1.22.85a.91.91,0,0,0,.19-.38c.1-.44-.08-.37.24-.88.74-1.18.87.81,1,1.31a1.18,1.18,0,0,0,.38.72c.56.42,1,0,1.11-.53.07-.24,0-.49.06-.72.21-.71.49-.82.82-.91a3.23,3.23,0,0,1,1,.43,2.41,2.41,0,0,0,.66.38.73.73,0,0,0,.76-.17.84.84,0,0,0,.14-.69c0-.2-.19-.37-.23-.56-.13-.71.37-.95,1-.47,1.07.82.1,2.57,1.31,3.3.78.48,1.39-.2,1.58-.88.08-.3.07-.6.14-.9s.34-.72.4-1.09a.89.89,0,0,0,0-.66c-.13-.32-1.15-1.17.59-.8.3.07.58.54.85.71a1.22,1.22,0,0,0,1,.22c.87-.24.6-1.18.56-1.83a.91.91,0,0,1,.13-.76,1.13,1.13,0,0,1,0-.25,1.76,1.76,0,0,0,.74.19,8.31,8.31,0,0,1,1.22.06,3.3,3.3,0,0,1,1.35.82c1.57,1.35,3.17,2.66,4.82,3.91.63.48,2.11,2,3,1.5.69-.43.32-1.49,0-2a5.17,5.17,0,0,0-3.24-2.34,8.57,8.57,0,0,1-2.78-1.19,11.88,11.88,0,0,1-2-2,4.26,4.26,0,0,1-.46-.59l-.21-.27.5-.63c.51-.15,1.07.49,1.39.82a5.24,5.24,0,0,0,1.71,1.31c.59.26,1.55.45,1.6-.42.07-1.08-1.43-1.46-2.2-1.72a4.31,4.31,0,0,1-2.22-1.14c-.08-.11-.2-1.4,0-1.5s.51.06.64.1a7.6,7.6,0,0,1,1.14.65c1.41.78,5.32.87,4.83-1.58-.25-1.25-1.71-1.68-2.76-2.07-.64-.23-2-.46-2.42-1a1.77,1.77,0,0,1-.23-1.57,3.1,3.1,0,0,0,.17-.73c0-.3-.14-.52-.16-.78-.07-.87.84-.75,1.41-1.08,1.25-.73,1.7-2.31,3.12-2.82,1.13-.41,2.53-.16,3.32-1.21a1.32,1.32,0,0,0-.16-2C69.05,14.06,67.79,15.7,66.89,16.25Z"/><path class="cls-2" d="M35.29,4A.89.89,0,0,0,35,3.18a1.77,1.77,0,0,0-.92-.58c-.44-.06-.86.62-.43.89a2.89,2.89,0,0,0,.32.59C34.37,4.55,35.17,4.64,35.29,4Z"/><path class="cls-2" d="M52.85,3c-.62-.34-1,.18-1.18.73a1.71,1.71,0,0,0-.42,1.73c.34,1,1.26.56,1.65-.09S53.61,3.36,52.85,3Z"/><path class="cls-2" d="M64,8.06a.48.48,0,0,0,0,.31,3.6,3.6,0,0,1-.73.83,4.63,4.63,0,0,0-.54.43.88.88,0,0,0-.25.63c.1,1.15,1.34-.35,1.54-.56.4-.43,1.65-1.31,1.37-2.07S64.17,7.69,64,8.06Z"/><path class="cls-2" d="M71.84.87c-.36.41-.33.64-.85,1a8.13,8.13,0,0,0-.78.52,4,4,0,0,0-.56.66s-.05,0-.09,0a4.58,4.58,0,0,0-.86,1.67s0,.27.07.23C70,4.6,70.5,3.49,71.48,2.8c.62-.45,1.66-.66,1.63-1.61S72.3.34,71.84.87Z"/><path class="cls-2" d="M64.32,44a1.11,1.11,0,0,0,1.24.93c.57-.18.5-1,.15-1.36a1.37,1.37,0,0,0-.53-.32c0-.07,0-.14-.06-.15C64.6,43,64.28,43.52,64.32,44Z"/><path class="cls-2" d="M38.63,40.21a6.65,6.65,0,0,0-.36.56c-.11.2-.33.49-.18.73.38.62,1.08-.19,1.33-.45s.9-.94.39-1.37S38.83,39.8,38.63,40.21Z"/></svg>