<svg id="Layer_1" data-name="Layer 1" xmlns="http://www.w3.org/2000/svg" viewBox="0 0 100 100"><defs><style>.cls-1{fill:#1a1a1a;}.cls-2{fill:#fcc5db;}</style></defs><rect class="cls-1" width="100" height="100"/><path class="cls-2" d="M64.22,96.65v.85H62.06l-2.79,0-3.52,0L29.3,47.07h0l-.45-.85-.92-1.94v3.44q0,21.7,0,43.42c0,.42,0,.85,0,1.28a4.17,4.17,0,0,0,4,4.19,5.06,5.06,0,0,0,.66.06v.83H19.83v-.86c.37,0,.76-.09,1.14-.16a4,4,0,0,0,3.33-3.43,11.1,11.1,0,0,0,.15-1.63v-4h0v-45c0-.67,0-1.35,0-2A5.65,5.65,0,0,0,23.38,37,4.26,4.26,0,0,0,20,35.35h-.16v-.9h10l.2.39,0,0a.41.41,0,0,1,.05.09c.31.62.64,1.24,1,1.87,2.44,4.68,4.89,9.37,7.3,14.07l.24.46,0,0L39,52l1.26,2.43.3.59Q46.77,67,53,79.1l.06.12.16.31V54.7h.06c.66-.06,1.32-.14,2-.23l.79-.11.78-.11v6.64q0,12.57,0,25.15a4,4,0,0,0,.27,1.5,29.76,29.76,0,0,0,4,6.87,11.14,11.14,0,0,0,1.26,1.31A3.63,3.63,0,0,0,64.22,96.65Z"/><path class="cls-2" d="M56.85,35.21V49.77l-.1,0-.73.13-.75.11h-.08l-.71.1-.29,0-.14,0-.83.1v-.42c0-3.29-.15-6.58-.13-9.87a51.27,51.27,0,0,0-1.16-11,28.94,28.94,0,0,0-4-10,18.43,18.43,0,0,0-7.2-6.45A21,21,0,0,0,32,10.71,22.24,22.24,0,0,0,21.32,13a16.81,16.81,0,0,0-7.62,6.87A16.68,16.68,0,0,0,11.61,28,19.17,19.17,0,0,0,14.8,39.24a22.91,22.91,0,0,0,8.59,7.5v2.77c-1.35-.6-2.71-1.21-4-1.92a26.37,26.37,0,0,1-7.84-6.2A17.1,17.1,0,0,1,7.42,30.31a22.57,22.57,0,0,1,.88-7.22,18.38,18.38,0,0,1,7.16-9.66,28.06,28.06,0,0,1,9.25-4.21l.08,0,.11,0,.18,0a30.14,30.14,0,0,1,17.05,1.34h0a22.82,22.82,0,0,1,7.52,5.18A23.66,23.66,0,0,1,54.78,24a34.09,34.09,0,0,1,1.62,6.26s0,.05,0,.08C56.47,30.79,56.76,32.89,56.85,35.21Z"/><path class="cls-2" d="M92.58,17.11a32.3,32.3,0,0,1-6.54,19A41.86,41.86,0,0,1,82,40.81l-.09.09-.19.18-.28.28c-.66.61-1.87,1.69-3.47,2.94-3.27,2.54-8.18,5.77-13.5,7.16h-.05A49.28,49.28,0,0,1,57.71,53l-1,.16-.79.11c-.63.09-1.27.16-1.94.23a86,86,0,0,1-13.05.28l-1.27-2.43.56.07h.45l.73.06h.14l.18,0h0c.64,0,1.48.09,2.48.12a71.86,71.86,0,0,0,7.62-.18h0c.67,0,1.37-.11,2.07-.19l.89-.1.45-.06L56,51l.76-.11.74-.12a41,41,0,0,0,13.75-4.66l0,0A40,40,0,0,0,76,43.17a33,33,0,0,0,12.74-17.8,18,18,0,0,0,.45-9.2,10.25,10.25,0,0,0-3.86-6.24c-2.3-1.71-4.82-2.23-7.44-.81a4.86,4.86,0,0,0-2.82,4.2,2.86,2.86,0,0,0,1,2.35A4,4,0,0,1,72.63,14a6,6,0,0,1-.49-6.56,8.84,8.84,0,0,1,6.72-4.81,11.83,11.83,0,0,1,12.75,7.92A19.52,19.52,0,0,1,92.58,17.11Z"/></svg>